<svg aria-hidden="true" style="position: absolute; width: 0; height: 0; overflow: hidden;" version="1.1" xmlns="http://www.w3.org/2000/svg" xmlns:xlink="http://www.w3.org/1999/xlink">
<defs>
<symbol id="icon-drop_icon" viewBox="0 0 32 32">
<path d="M25 19.18c0 5.109-4.141 9.25-9.25 9.25s-9.25-4.141-9.25-9.25v0c0-8.095 7.5-15.61 9.25-15.61s9.25 7.515 9.25 15.61z"></path>
<path d="M14.65 17.035c0 1.66-1.050 2.525-2.2 2.525s-2.16-0.905-2.16-2.395 0.865-2.5 2.22-2.5 2.14 1.015 2.14 2.37zM11.65 17.12c0 0.83 0.28 1.43 0.82 1.43s0.78-0.535 0.78-1.43c0-0.805-0.22-1.43-0.795-1.43s-0.785 0.64-0.785 1.43zM21.5 20.335c0 1.66-1.050 2.525-2.2 2.525s-2.15-0.905-2.16-2.395 0.865-2.5 2.22-2.5 2.14 1.035 2.14 2.37zM18.535 20.42c0 0.83 0.27 1.43 0.805 1.43s0.78-0.535 0.78-1.43c0-0.805-0.21-1.43-0.78-1.43s-0.785 0.635-0.785 1.43z"></path>
<path stroke-linejoin="round" stroke-linecap="round" stroke-miterlimit="4" stroke-width="1" d="M18.35 14.845l-4.625 7.515"></path>
</symbol>
<symbol id="icon-sunny_weather_icon" viewBox="0 0 32 32">
<path d="M24.5 16c0 4.694-3.806 8.5-8.5 8.5s-8.5-3.806-8.5-8.5c0-4.694 3.806-8.5 8.5-8.5s8.5 3.806 8.5 8.5z"></path>
<path stroke-linejoin="miter" stroke-linecap="round" stroke-miterlimit="10" stroke-width="1.5" d="M16 2.5v3"></path>
<path stroke-linejoin="miter" stroke-linecap="round" stroke-miterlimit="10" stroke-width="1.5" d="M16 26.5v3"></path>
<path stroke-linejoin="miter" stroke-linecap="round" stroke-miterlimit="10" stroke-width="1.5" d="M29.5 16h-3"></path>
<path stroke-linejoin="miter" stroke-linecap="round" stroke-miterlimit="10" stroke-width="1.5" d="M5.5 16h-3"></path>
<path stroke-linejoin="miter" stroke-linecap="round" stroke-miterlimit="10" stroke-width="1.5" d="M25.545 6.455l-2.12 2.12"></path>
<path stroke-linejoin="miter" stroke-linecap="round" stroke-miterlimit="10" stroke-width="1.5" d="M8.575 23.425l-2.12 2.12"></path>
<path stroke-linejoin="miter" stroke-linecap="round" stroke-miterlimit="10" stroke-width="1.5" d="M25.545 25.545l-2.12-2.12"></path>
<path stroke-linejoin="miter" stroke-linecap="round" stroke-miterlimit="10" stroke-width="1.5" d="M8.575 8.575l-2.12-2.12"></path>
</symbol>
<symbol id="icon-rain_weather_icon" viewBox="0 0 32 32">
<path d="M12.11 23.135c0.12-0.32 0.48-0.48 0.805-0.36 0.32 0.12 0.485 0.48 0.365 0.8l-0.765 2.025c-0.12 0.32-0.48 0.485-0.8 0.36-0.325-0.12-0.485-0.48-0.365-0.8l0.76-2.025zM24.24 23.14c0.12-0.32 0.475-0.485 0.8-0.365 0.32 0.12 0.485 0.48 0.365 0.8l-1.395 3.76c-0.12 0.32-0.48 0.485-0.8 0.365-0.325-0.12-0.49-0.48-0.37-0.8l1.4-3.76zM7.97 23.14c0.12-0.32 0.48-0.485 0.8-0.365s0.485 0.48 0.365 0.8l-1.395 3.76c-0.12 0.32-0.48 0.485-0.8 0.365-0.325-0.12-0.485-0.48-0.365-0.8l1.395-3.76zM16.485 23.14c0.12-0.32 0.48-0.485 0.8-0.365 0.325 0.12 0.485 0.48 0.365 0.8l-1.395 3.76c-0.12 0.32-0.48 0.485-0.8 0.365s-0.485-0.48-0.365-0.8l1.395-3.76zM20.505 23.135c0.125-0.32 0.485-0.48 0.805-0.36s0.485 0.48 0.365 0.8l-0.76 2.025c-0.125 0.32-0.485 0.485-0.805 0.36-0.32-0.12-0.485-0.48-0.365-0.8l0.76-2.025z"></path>
<path d="M5.18 21.005c-0.095-0.025-0.195-0.050-0.29-0.080 0.095 0.030 0.195 0.055 0.29 0.080zM4.7 20.86c-0.19-0.070-0.37-0.15-0.545-0.245 0.175 0.095 0.355 0.175 0.545 0.245zM4.155 20.615c-0.695-0.38-1.27-0.955-1.65-1.65 0.38 0.695 0.955 1.27 1.65 1.65zM2.505 18.965c-0.095-0.175-0.18-0.36-0.245-0.545 0.065 0.185 0.15 0.37 0.245 0.545zM2.195 18.23c-0.030-0.095-0.055-0.195-0.080-0.295 0.025 0.1 0.050 0.2 0.080 0.295zM6.035 12.91v0c0.050-0.75 0.21-1.465 0.455-2.14-0.25 0.675-0.405 1.39-0.455 2.14zM15.66 5.995c2.41 0.635 4.355 2.41 5.225 4.71 0.31-0.055 0.625-0.085 0.945-0.085 2.665 0 4.87 1.99 5.2 4.565 0.5 0 0.97 0.125 1.38 0.34 0.37-0.735 0.58-1.57 0.58-2.455 0-3.025-2.45-5.475-5.475-5.475-0.245 0-0.485 0.015-0.725 0.050-0.26-1.915-1.895-3.385-3.875-3.385-1.36 0-2.555 0.69-3.255 1.735z"></path>
<path d="M6.11 21.11c-2.265 0-4.1-1.835-4.1-4.1 0-2.24 1.795-4.060 4.025-4.1 0.27-4.005 3.6-7.165 7.665-7.165 3.285 0 6.090 2.060 7.185 4.96 0.31-0.055 0.625-0.085 0.945-0.085 2.665 0 4.87 1.99 5.2 4.565 1.635 0 2.96 1.33 2.96 2.96 0 1.615-1.285 2.925-2.885 2.965-7 0.095-14 0-20.995 0z"></path>
</symbol>
<symbol id="icon-cloud_weather_icon" viewBox="0 0 32 32">
<path d="M20.635 9.33c3.445 0.92 5.49 4.46 4.565 7.905-0.325 1.215-0.975 2.255-1.83 3.055-0.755-1.395-2.225-2.34-3.92-2.34-0.275 0-0.545 0.020-0.805 0.070-0.91-2.4-3.195-4.125-5.895-4.21 0.96-3.395 4.47-5.395 7.885-4.48z"></path>
<path d="M6.145 26.855h-0.050c-1.925 0-3.485-1.555-3.485-3.48 0-1.905 1.525-3.45 3.425-3.485 0.225-3.4 3.050-6.085 6.51-6.085 2.79 0 5.17 1.75 6.1 4.215 0.26-0.050 0.53-0.070 0.805-0.070 2.26 0 4.135 1.69 4.415 3.875 1.39 0 2.515 1.13 2.515 2.515 0 1.37-1.095 2.485-2.455 2.515h-17.78z"></path>
<path d="M27.76 19.925c0.3 0.17 0.4 0.555 0.23 0.85-0.17 0.3-0.55 0.4-0.85 0.23l-0.865-0.5c-0.295-0.17-0.4-0.55-0.23-0.85 0.175-0.295 0.555-0.4 0.85-0.23l0.865 0.5zM10.17 11.205c-0.3-0.17-0.4-0.55-0.23-0.85 0.17-0.295 0.55-0.4 0.85-0.23l0.865 0.5c0.295 0.17 0.4 0.55 0.225 0.85-0.17 0.3-0.55 0.4-0.845 0.23l-0.865-0.5zM13.525 7.39c-0.17-0.3-0.065-0.68 0.23-0.85 0.3-0.17 0.68-0.070 0.85 0.23l0.5 0.865c0.17 0.295 0.065 0.68-0.23 0.85-0.3 0.17-0.68 0.065-0.85-0.23l-0.5-0.865zM18.34 5.765c0-0.345 0.28-0.625 0.625-0.625s0.625 0.28 0.625 0.625v1c0 0.345-0.28 0.625-0.625 0.625s-0.625-0.28-0.625-0.625v-1zM23.325 6.765c0.175-0.295 0.555-0.395 0.85-0.225 0.3 0.175 0.4 0.555 0.23 0.85l-0.5 0.865c-0.175 0.3-0.555 0.4-0.855 0.23-0.295-0.175-0.395-0.555-0.225-0.855l0.5-0.865zM27.14 10.125c0.3-0.17 0.68-0.065 0.85 0.23 0.17 0.3 0.070 0.68-0.23 0.85l-0.865 0.5c-0.295 0.17-0.675 0.070-0.85-0.23-0.17-0.3-0.065-0.68 0.23-0.85l0.865-0.5zM28.765 14.94c0.345 0 0.625 0.28 0.625 0.625s-0.28 0.625-0.625 0.625h-1c-0.345 0-0.625-0.28-0.625-0.625s0.28-0.625 0.625-0.625h1z"></path>
</symbol>
</defs>
</svg>
